<?xml version="1.0" encoding="utf-8"?>
<!-- Generator: Adobe Illustrator 15.1.0, SVG Export Plug-In . SVG Version: 6.00 Build 0)  -->
<!DOCTYPE svg PUBLIC "-//W3C//DTD SVG 1.1//EN" "http://www.w3.org/Graphics/SVG/1.1/DTD/svg11.dtd">
<svg version="1.1" id="Capa_1" xmlns="http://www.w3.org/2000/svg" xmlns:xlink="http://www.w3.org/1999/xlink" x="0px" y="0px"
	 width="670.596px" height="611.998px" viewBox="0 0 670.596 611.998" enable-background="new 0 0 670.596 611.998"
	 xml:space="preserve">
<g>
	<g>
		<path fill="#006325" d="M52.085,110.68C19.532,110.68,0,84.638,0,58.596S26.043,0,52.085,0h553.404
			c32.553,0,58.596,26.042,58.596,58.596c0,32.553-26.043,52.084-58.596,52.084H52.085z"/>
		<path fill="#006325" d="M612,247.403c32.553,0,58.596,26.042,58.596,58.596c0,32.553-26.043,52.084-58.596,52.084H58.596
			c-32.554,0-52.085-26.042-52.085-52.084s26.042-58.596,52.085-58.596H612z"/>
		<path fill="#006325" d="M612,501.318c32.553,0,58.596,26.042,58.596,52.084c0,32.553-26.043,58.596-58.596,58.596H58.596
			c-32.554,0-52.085-26.043-52.085-58.596c0-32.555,26.042-52.084,52.085-52.084H612L612,501.318z"/>
	</g>
</g>
</svg>
